<svg width="512" height="512" viewBox="0 0 512 512" fill="none" xmlns="http://www.w3.org/2000/svg">
<rect width="512" height="512" fill="#292735"/>
<path d="M98.3977 213.964C99.041 219.295 107.275 229.958 135.064 229.958C169.801 229.958 181.38 165.98 135.064 165.98C88.7486 165.98 86.8188 106 135.064 106C156.678 106 164.655 115.33 165.942 119.995" stroke="#1B7BE7" stroke-width="24"/>
<path d="M210.971 269.542C218.711 269.542 241.158 269.542 269.022 269.542C303.853 269.542 301.918 332.008 272.892 332.008M272.892 332.008C249.672 332.008 221.936 332.008 210.971 332.008M272.892 332.008C315.464 332.008 313.529 392.458 272.892 392.458H210.971" stroke="#68BE66" stroke-width="24"/>
<path d="M287.725 106H228.368V238.292" stroke="#1B7BE7" stroke-width="24"/>
<path d="M332.754 106C343.028 106 371.282 106 402.104 106C440.632 106 440.632 168.174 402.104 168.174C398.859 168.174 395.642 168.174 392.472 168.174M332.754 168.174C341.947 168.174 365.532 168.174 392.472 168.174M429.074 240.375L392.472 168.174" stroke="#449FA1" stroke-width="24"/>
<path d="M335.825 271.625H427.93M335.825 334.125H415.649M335.825 393.5H427.93" stroke="#91E220" stroke-width="24"/>
<path d="M169.292 334.125C169.292 351.821 164.269 367.325 156.763 378.082C149.23 388.88 139.985 394 131.146 394C122.307 394 113.062 388.88 105.529 378.082C98.0239 367.325 93 351.821 93 334.125C93 316.429 98.0239 300.925 105.529 290.168C113.062 279.37 122.307 274.25 131.146 274.25C139.985 274.25 149.23 279.37 156.763 290.168C164.269 300.925 169.292 316.429 169.292 334.125Z" stroke="#65B764" stroke-width="24"/>
</svg>
