<svg width="460" height="82" viewBox="0 0 460 82" fill="none" xmlns="http://www.w3.org/2000/svg">
<path d="M29.1846 33.4316C29.7654 33.5042 30.7455 33.6494 32.1248 33.8672C33.5768 34.085 35.174 34.5206 36.9163 35.174C38.7313 35.7548 40.5826 36.5533 42.4701 37.5697C44.3577 38.5861 46.0638 40.0018 47.5883 41.8167C49.1129 43.5591 50.3834 45.7008 51.3997 48.2417C52.4161 50.7827 52.9243 53.8318 52.9243 57.3891C52.9243 57.5343 52.8517 58.2603 52.7065 59.5671C52.6339 60.8012 52.3072 62.3258 51.7264 64.1408C51.1456 65.9557 50.2745 67.8796 49.1129 69.9124C47.9513 71.9451 46.2816 73.869 44.1036 75.684C41.9257 77.4263 39.1669 78.8783 35.8274 80.0399C32.5604 81.2014 28.5312 81.7822 23.7397 81.7822C19.3112 81.7822 15.1005 80.8747 11.1076 79.0598C7.18725 77.1722 3.81139 74.595 0.98005 71.328L12.0877 62.7251C12.0877 62.7977 12.3418 63.1244 12.8499 63.7052C13.4307 64.286 14.2293 64.9031 15.2457 65.5565C16.3347 66.2099 17.6777 66.8269 19.2749 67.4077C20.9447 67.9159 22.9048 68.17 25.1554 68.17C29.2935 68.17 32.5241 67.1173 34.8473 65.012C37.1704 62.834 38.332 60.2931 38.332 57.3891C38.332 55.2838 37.8964 53.5777 37.0252 52.2709C36.154 50.8916 34.9562 49.8026 33.4316 49.004C31.9797 48.1328 30.2736 47.4794 28.3134 47.0438C26.4259 46.5356 24.3931 46.0637 22.2151 45.6282C21.6343 45.5556 20.6543 45.3741 19.2749 45.0837C17.9681 44.7933 16.4799 44.3214 14.8101 43.668C13.2129 43.0146 11.5069 42.1797 9.69189 41.1633C7.94952 40.0744 6.35236 38.7313 4.90039 37.1341C3.52101 35.4644 2.35946 33.5042 1.41568 31.2537C0.471898 28.9305 0 26.2081 0 23.0863C0 22.9411 0.0362856 22.2877 0.108884 21.1262C0.254081 19.892 0.58079 18.44 1.08898 16.7702C1.66977 15.0279 2.54095 13.1766 3.70252 11.2165C4.9367 9.25629 6.64277 7.47763 8.82072 5.88046C10.9987 4.21069 13.7211 2.83132 16.9881 1.74234C20.3276 0.653363 24.3931 0.108871 29.1846 0.108871C33.6131 0.108871 37.8238 1.05265 41.8167 2.94022C45.8097 4.82778 49.2218 7.40503 52.0531 10.672L40.9456 19.2749C40.147 17.8955 39.0217 16.8428 37.5697 16.1168C36.1178 15.3183 34.6658 14.7375 33.2138 14.3745C31.4715 14.0115 29.6202 13.7937 27.66 13.7211C23.5219 13.7211 20.2913 14.556 17.9681 16.2257C15.645 17.8229 14.4834 20.1098 14.4834 23.0863C14.4834 25.1917 14.8464 26.8614 15.5724 28.0956C16.2984 29.2572 17.2784 30.1647 18.5126 30.8181C19.8194 31.4714 21.3803 31.9796 23.1952 32.3426C25.0102 32.633 27.0066 32.996 29.1846 33.4316Z" fill="#1B7BE7"/>
<path d="M123.981 0V13.6122H96.7567V81.7823H83.0356V0H123.981Z" fill="#1B7BE7"/>
<path d="M213.498 81.7822H198.361L180.284 48.4595H150.01V34.9562H189.322C190.992 34.8836 192.48 34.448 193.787 33.6494C194.949 32.996 196.001 31.9433 196.945 30.4914C197.889 29.0394 198.361 26.9703 198.361 24.2842C198.361 21.6706 197.889 19.6379 196.945 18.1859C196.001 16.7339 194.949 15.6813 193.787 15.0279C192.48 14.2293 190.992 13.7937 189.322 13.7211H150.01V0.108871H189.322C193.533 0.326667 197.308 1.34304 200.648 3.15801C202.027 3.95659 203.406 4.93667 204.786 6.09825C206.165 7.25983 207.363 8.6755 208.379 10.3453C209.468 12.015 210.34 14.0115 210.993 16.3346C211.646 18.5852 211.973 21.235 211.973 24.2842C211.973 29.2209 211.175 33.2864 209.577 36.4807C207.98 39.6025 206.165 42.0708 204.132 43.8858C202.172 45.6282 200.285 46.826 198.47 47.4794C196.727 48.1328 195.675 48.4595 195.312 48.4595L213.498 81.7822Z" fill="#449FA1"/>
<path d="M265.388 0.108871C271.124 0.108871 275.915 1.37934 279.763 3.92029C283.683 6.38864 286.805 9.58298 289.128 13.5033C291.451 17.4236 293.085 21.8158 294.029 26.6799C295.045 31.544 295.553 36.3355 295.553 41.0544C295.553 41.5626 295.481 42.942 295.335 45.1926C295.263 47.3705 294.936 49.9841 294.355 53.0332C293.847 56.0823 292.976 59.313 291.742 62.7251C290.58 66.0646 288.874 69.1864 286.623 72.0903C284.373 74.9217 281.505 77.2811 278.021 79.1687C274.608 81.0562 270.398 82 265.388 82C259.363 82 254.317 80.7295 250.252 78.1886C246.186 75.6476 242.883 72.3807 240.342 68.3878C237.874 64.3223 236.095 59.7849 235.006 54.7756C233.99 49.6937 233.481 44.6844 233.481 39.7477C233.481 38.9491 233.518 37.4245 233.59 35.174C233.735 32.9234 234.098 30.3462 234.679 27.4422C235.26 24.4657 236.168 21.3802 237.402 18.1859C238.708 14.9916 240.523 12.0513 242.847 9.36519C245.242 6.67904 248.255 4.46478 251.885 2.72241C255.588 0.980049 260.089 0.108871 265.388 0.108871ZM265.388 68.3878C268.22 68.3878 270.579 67.7344 272.467 66.4276C274.427 65.0482 276.024 63.3422 277.258 61.3094C278.492 59.2041 279.436 56.9898 280.09 54.6667C280.743 52.2709 281.179 50.0567 281.396 48.0239C281.687 45.9911 281.832 44.3214 281.832 43.0146C281.905 41.7078 281.941 41.0544 281.941 41.0544C281.941 40.6188 281.905 39.6025 281.832 38.0053C281.832 36.3355 281.65 34.448 281.287 32.3426C280.997 30.2373 280.525 28.023 279.872 25.6998C279.218 23.3041 278.275 21.1261 277.04 19.166C275.806 17.2058 274.245 15.6087 272.358 14.3745C270.47 13.0677 268.147 12.4143 265.388 12.4143C261.613 12.4143 258.528 13.4307 256.132 15.4635C253.736 17.4962 251.849 20.0009 250.469 22.9774C249.163 25.8813 248.255 29.0031 247.747 32.3426C247.311 35.6095 247.094 38.5135 247.094 41.0544C247.094 41.2722 247.13 42.1071 247.202 43.5591C247.275 45.0111 247.457 46.7534 247.747 48.7862C248.11 50.8189 248.654 52.9969 249.38 55.32C250.106 57.5706 251.123 59.676 252.43 61.6361C253.809 63.5963 255.551 65.2297 257.657 66.5365C259.762 67.7707 262.339 68.3878 265.388 68.3878Z" fill="#68BE66"/>
<path d="M368.174 38.8765C369.263 39.5299 370.424 40.4011 371.658 41.49C372.965 42.579 374.163 43.9221 375.252 45.5193C376.341 47.1164 377.248 49.004 377.974 51.1819C378.773 53.2873 379.172 55.6831 379.172 58.3692C379.172 61.3457 378.846 63.9593 378.192 66.2098C377.611 68.3878 376.813 70.3117 375.796 71.9814C374.78 73.5786 373.618 74.958 372.312 76.1195C371.005 77.2085 369.662 78.116 368.282 78.842C365.088 80.5844 361.458 81.5644 357.393 81.7822H319.714V67.9522H357.393C357.393 67.9522 357.792 67.9159 358.591 67.8433C359.462 67.6981 360.406 67.3351 361.422 66.7543C362.511 66.101 363.455 65.1572 364.253 63.923C365.124 62.6162 365.56 60.7649 365.56 58.3692C365.56 55.9008 365.124 53.977 364.253 52.5976C363.382 51.2183 362.438 50.2382 361.422 49.6574C360.188 48.9314 358.845 48.5321 357.393 48.4595H319.714V34.6295H350.641C352.166 34.6295 353.545 34.2302 354.779 33.4316C355.796 32.8508 356.739 31.8707 357.61 30.4914C358.482 29.0394 358.917 27.0429 358.917 24.502C358.917 21.8884 358.482 19.8557 357.61 18.4037C356.739 16.9517 355.796 15.8991 354.779 15.2457C353.545 14.4471 352.166 14.0115 350.641 13.9389H319.714V0.108871H352.057C355.832 0.326667 359.208 1.34305 362.184 3.15801C363.491 3.95659 364.725 4.93667 365.887 6.09825C367.121 7.25983 368.21 8.71179 369.154 10.4542C370.17 12.1239 370.969 14.1204 371.549 16.4435C372.13 18.6941 372.421 21.3439 372.421 24.3931C372.421 26.7888 372.203 28.8942 371.767 30.7092C371.332 32.4515 370.823 33.9398 370.243 35.174C369.589 36.5533 368.9 37.7875 368.174 38.8765Z" fill="#68BE66"/>
<path d="M405.098 81.7822V68.17H459.656V81.7822H405.098ZM453.557 34.085V47.6972H405.098V34.085H453.557ZM405.098 0.108871H459.656V13.7211H405.098V0.108871Z" fill="#91E220"/>
</svg>
